<svg xmlns="http://www.w3.org/2000/svg" width="128" height="128" viewBox="0 0 128 128">
  <rect width="128" height="128" fill="#2d5a27"/>
  <rect x="20" y="40" width="88" height="60" fill="#1a3a5c" stroke="#4a8ac4" stroke-width="2"/>
  <rect x="28" y="48" width="12" height="8" fill="#00ff88"/>
  <rect x="44" y="48" width="12" height="8" fill="#00ff88"/>
  <rect x="60" y="48" width="12" height="8" fill="#00ff88"/>
  <rect x="76" y="48" width="12" height="8" fill="#00ff88"/>
  <rect x="92" y="48" width="12" height="8" fill="#00ff88"/>
  <rect x="28" y="60" width="12" height="8" fill="#00ff88"/>
  <rect x="44" y="60" width="12" height="8" fill="#00ff88"/>
  <rect x="60" y="60" width="12" height="8" fill="#ffaa00"/>
  <rect x="76" y="60" width="12" height="8" fill="#00ff88"/>
  <rect x="92" y="60" width="12" height="8" fill="#00ff88"/>
  <rect x="28" y="72" width="12" height="8" fill="#00ff88"/>
  <rect x="44" y="72" width="12" height="8" fill="#00ff88"/>
  <rect x="60" y="72" width="12" height="8" fill="#00ff88"/>
  <rect x="76" y="72" width="12" height="8" fill="#00ff88"/>
  <rect x="92" y="72" width="12" height="8" fill="#00ff88"/>
  <rect x="28" y="84" width="12" height="8" fill="#00ff88"/>
  <rect x="44" y="84" width="12" height="8" fill="#00ff88"/>
  <rect x="60" y="84" width="12" height="8" fill="#00ff88"/>
  <rect x="76" y="84" width="12" height="8" fill="#00ff88"/>
  <rect x="92" y="84" width="12" height="8" fill="#00ff88"/>
  <text x="64" y="125" text-anchor="middle" font-size="12" fill="white" font-family="sans-serif">DATA CENTER</text>
</svg>
